# xmcd
#
# Track frame offsets:
# 183
# 26235
# 57475
# 79833
# 98515
# 122453
# 143110
# 164710
#
# Disc length: 2561 seconds
#
#
# Revision: 6
# Processed by: cddbd v1.5.2PL0 Copyright (c) Steve Scherf et al.
# Submitted via: FreeRIP 2.951 
#
DISCID=6809ff08
DTITLE=John Mayall - Life In The Jungle
DYEAR=1996
DGENRE=Blues
TTITLE0=Ridin  On The L&M
TTITLE1=Help Me
TTITLE2=All Your Love
TTITLE3=I Ain't Got You
TTITLE4=One Life To Live
TTITLE5=The Last Time
TTITLE6=Fascinating Lover
TTITLE7=Life In The Jungle
EXTD=YEAR: 1996 ID3G:   0 Ridin  On The L&M
EXTT0=
EXTT1=
EXTT2=
EXTT3=
EXTT4=
EXTT5=
EXTT6=
EXTT7=
PLAYORDER=
